<?xml version="1.0" standalone="no"?>
<!DOCTYPE svg PUBLIC "-//W3C//DTD SVG 20010904//EN"
 "http://www.w3.org/TR/2001/REC-SVG-20010904/DTD/svg10.dtd">
<svg version="1.0" xmlns="http://www.w3.org/2000/svg"
 width="260.000000pt" height="260.000000pt" viewBox="0 0 260.000000 260.000000"
 preserveAspectRatio="xMidYMid meet">
<metadata>
Created by potrace 1.14, written by Peter Selinger 2001-2017
</metadata>
<g transform="translate(0.000000,260.000000) scale(0.100000,-0.100000)"
fill="#000000" stroke="none">
<path d="M0 1300 l0 -1300 1300 0 1300 0 0 1300 0 1300 -1300 0 -1300 0 0
-1300z m1057 10 c68 -179 126 -333 129 -342 5 -16 -4 -18 -104 -18 l-109 0
-17 43 c-9 23 -16 48 -16 55 0 9 -33 12 -124 12 l-125 0 -16 -55 -16 -55 -109
0 -110 0 21 53 c12 28 33 86 49 127 15 41 43 118 63 170 20 52 51 138 70 190
19 52 40 108 46 123 l11 28 117 -3 117 -3 123 -325z m688 319 c129 -36 165
-207 58 -274 -18 -11 -32 -22 -32 -25 0 -3 19 -14 41 -25 61 -30 91 -91 85
-168 -7 -76 -40 -127 -104 -158 -46 -23 -60 -24 -290 -27 l-243 -4 0 346 0
346 223 0 c131 0 238 -5 262 -11z"/>
<path d="M780 1348 c-17 -56 -34 -111 -36 -120 -5 -16 3 -18 69 -18 l75 0 -35
118 c-19 64 -37 119 -38 120 -2 2 -18 -43 -35 -100z"/>
<path d="M1480 1440 l0 -62 76 4 c79 4 104 18 104 58 0 40 -25 54 -104 58
l-76 4 0 -62z"/>
<path d="M1480 1180 l0 -72 86 3 c77 4 88 7 105 28 14 17 18 33 14 50 -11 47
-30 56 -120 60 l-85 3 0 -72z"/>
</g>
</svg>
